<svg width="306" height="251" viewBox="0 0 306 251" fill="none" xmlns="http://www.w3.org/2000/svg">
<path d="M10.0336 115.112V117.703" stroke="#D2D8DF" stroke-width="2.921" stroke-linecap="round"/>
<path d="M4.21716 116.516L6.33385 118.695" stroke="#D2D8DF" stroke-width="2.921" stroke-linecap="round"/>
<path d="M1.7406 122.316H4.73356" stroke="#D2D8DF" stroke-width="2.921" stroke-linecap="round"/>
<path d="M3.97302 128.22L6.08971 126.041" stroke="#D2D8DF" stroke-width="2.921" stroke-linecap="round"/>
<path d="M10.0336 128.927V126.337" stroke="#D2D8DF" stroke-width="2.921" stroke-linecap="round"/>
<path d="M14.3503 127.201L12.6234 125.474" stroke="#D2D8DF" stroke-width="2.921" stroke-linecap="round"/>
<path d="M17.8055 122.883H15.2151" stroke="#D2D8DF" stroke-width="2.921" stroke-linecap="round"/>
<path d="M16.0786 116.839L14.3517 118.566" stroke="#D2D8DF" stroke-width="2.921" stroke-linecap="round"/>
<path d="M149.049 2V3.7269" stroke="#D2D8DF" stroke-width="2.921" stroke-linecap="round"/>
<path d="M143.87 7.18066H145.596" stroke="#D2D8DF" stroke-width="2.921" stroke-linecap="round"/>
<path d="M149.049 12.3617V10.6348" stroke="#D2D8DF" stroke-width="2.921" stroke-linecap="round"/>
<path d="M153.368 7.18066H151.641" stroke="#D2D8DF" stroke-width="2.921" stroke-linecap="round"/>
<path d="M48.889 74.5293V77.1196" stroke="#D2D8DF" stroke-width="2.921" stroke-linecap="round"/>
<path d="M41.1195 82.3008H43.7099" stroke="#D2D8DF" stroke-width="2.921" stroke-linecap="round"/>
<path d="M48.889 89.2085V86.6182" stroke="#D2D8DF" stroke-width="2.921" stroke-linecap="round"/>
<path d="M55.7977 82.3008H53.2074" stroke="#D2D8DF" stroke-width="2.921" stroke-linecap="round"/>
<path d="M234.751 168.681C236.815 168.681 238.488 170.355 238.488 172.419C238.488 174.483 236.815 176.157 234.751 176.157C232.688 176.157 231.014 174.483 231.014 172.419" stroke="#D2D8DF" stroke-width="2.921" stroke-linecap="round"/>
<path d="M251.809 217.819C252.27 221.042 250.033 224.029 246.811 224.491C243.589 224.952 240.603 222.714 240.141 219.492C239.679 216.269 241.916 213.282 245.138 212.82" stroke="#D2D8DF" stroke-width="2.921" stroke-linecap="round"/>
<path fill-rule="evenodd" clip-rule="evenodd" d="M251.854 134.768C254.073 134.076 257.474 131.362 258.261 128.442C258.975 131.023 261.968 134.076 264.669 134.307C261.629 135.383 258.722 138.581 258.261 141.093C257.948 138.532 253.928 135.141 251.854 134.768Z" fill="#EBECEE"/>
<path fill-rule="evenodd" clip-rule="evenodd" d="M24.0844 167.529C25.1942 167.183 26.8941 165.826 27.2877 164.366C27.6447 165.656 29.1408 167.183 30.4911 167.298C28.9715 167.836 27.5186 169.435 27.2877 170.691C27.1308 169.411 25.1209 167.715 24.0844 167.529Z" fill="#EBECEE"/>
<path fill-rule="evenodd" clip-rule="evenodd" d="M44.6805 47.416C44.6805 49.0174 43.383 50.3145 41.7828 50.3145C40.1819 50.3145 38.8851 49.0174 38.8851 47.416C38.8851 45.8154 40.1819 44.5176 41.7828 44.5176C43.383 44.5176 44.6805 45.8154 44.6805 47.416Z" fill="#D1D8DF"/>
<path fill-rule="evenodd" clip-rule="evenodd" d="M215.799 229.397C215.799 232.073 213.63 234.242 210.956 234.242C208.28 234.242 206.112 232.073 206.112 229.397C206.112 226.722 208.28 224.553 210.956 224.553C213.63 224.553 215.799 226.722 215.799 229.397Z" fill="#EBECEE"/>
<path fill-rule="evenodd" clip-rule="evenodd" d="M305.259 42.0733C305.259 44.196 303.54 45.9161 301.418 45.9161C299.296 45.9161 297.577 44.196 297.577 42.0733C297.577 39.9506 299.296 38.2305 301.418 38.2305C303.54 38.2305 305.259 39.9506 305.259 42.0733Z" fill="#EBECEE"/>
<path fill-rule="evenodd" clip-rule="evenodd" d="M98.8337 221.548C98.8337 222.886 97.7496 223.97 96.4118 223.97C95.0748 223.97 93.9906 222.886 93.9906 221.548C93.9906 220.209 95.0748 219.125 96.4118 219.125C97.7496 219.125 98.8337 220.209 98.8337 221.548Z" stroke="#D2D8DF" stroke-width="2.921" stroke-linecap="round"/>
<path fill-rule="evenodd" clip-rule="evenodd" d="M97.3953 28.7949C97.3953 30.3963 96.0979 31.6934 94.4977 31.6934C92.8974 31.6934 91.6 30.3963 91.6 28.7949C91.6 27.1943 92.8974 25.8965 94.4977 25.8965C96.0979 25.8965 97.3953 27.1943 97.3953 28.7949Z" stroke="#D2D8DF" stroke-width="2.921" stroke-linecap="round"/>
<path fill-rule="evenodd" clip-rule="evenodd" d="M171.308 248.374C169.456 249.079 167.384 248.148 166.679 246.297C165.975 244.445 166.904 242.371 168.757 241.667C170.608 240.963 172.68 241.892 173.384 243.744C174.09 245.597 173.159 247.669 171.308 248.374Z" stroke="#D2D8DF" stroke-width="2.921" stroke-linecap="round"/>
<path fill-rule="evenodd" clip-rule="evenodd" d="M120.553 188.466H137.114L128.439 216.068L167.083 177.031H143.817L156.83 119.854L120.553 188.466Z" fill="url(#paint0_linear_6925_2176)"/>
<path fill-rule="evenodd" clip-rule="evenodd" d="M219.621 102.505C215.538 99.6033 210.771 97.6036 205.605 96.8057C202.779 72.1171 181.82 52.9434 156.375 52.9434C140.519 52.9434 126.405 60.3932 117.332 71.9833C114.148 70.9169 110.75 70.335 107.206 70.335C90.9369 70.335 77.5206 82.5303 75.5839 98.2771C62.1201 102.451 52.3441 115.003 52.3441 129.835C52.3441 148.028 67.0487 162.782 85.2243 162.867C86.1603 162.993 87.1118 163.067 88.0823 163.067H196.115C198.109 163.441 200.155 163.645 202.258 163.645C220.506 163.645 235.294 148.854 235.294 130.609C235.294 118.733 229.026 108.326 219.621 102.505Z" fill="#F1F2F7"/>
<path fill-rule="evenodd" clip-rule="evenodd" d="M127.783 83.7923C123.96 82.2411 119.706 81.3701 115.221 81.3701C98.6131 81.3701 85.1547 93.2247 85.1547 107.845C85.1547 109.324 85.2956 110.772 85.5615 112.183C98.4741 93.9416 107.372 86.6975 127.783 83.7923Z" fill="#E0E2EE"/>
<defs>
<linearGradient id="paint0_linear_6925_2176" x1="143.818" y1="71.7478" x2="68.3978" y2="108.222" gradientUnits="userSpaceOnUse">
<stop stop-color="#D4C3FF"/>
<stop offset="1" stop-color="#7446ED"/>
</linearGradient>
</defs>
</svg>
