<svg width="256" height="210" viewBox="0 0 256 210" fill="none" xmlns="http://www.w3.org/2000/svg">
<path d="M8.9407 96.658V98.8257" stroke="#D2D8DF" stroke-width="2.921" stroke-linecap="round"/>
<path d="M4.07177 97.832L5.84312 99.6555" stroke="#D2D8DF" stroke-width="2.921" stroke-linecap="round"/>
<path d="M2 102.686H4.50466" stroke="#D2D8DF" stroke-width="2.921" stroke-linecap="round"/>
<path d="M3.86854 107.626L5.63989 105.803" stroke="#D2D8DF" stroke-width="2.921" stroke-linecap="round"/>
<path d="M8.9407 108.219V106.051" stroke="#D2D8DF" stroke-width="2.921" stroke-linecap="round"/>
<path d="M12.5536 106.774L11.1084 105.329" stroke="#D2D8DF" stroke-width="2.921" stroke-linecap="round"/>
<path d="M15.4439 103.161H13.2762" stroke="#D2D8DF" stroke-width="2.921" stroke-linecap="round"/>
<path d="M13.9988 98.103L12.5536 99.5482" stroke="#D2D8DF" stroke-width="2.921" stroke-linecap="round"/>
<path d="M125.276 2V3.44516" stroke="#D2D8DF" stroke-width="2.921" stroke-linecap="round"/>
<path d="M120.94 6.33569H122.385" stroke="#D2D8DF" stroke-width="2.921" stroke-linecap="round"/>
<path d="M125.276 10.671V9.22583" stroke="#D2D8DF" stroke-width="2.921" stroke-linecap="round"/>
<path d="M128.889 6.33569H127.444" stroke="#D2D8DF" stroke-width="2.921" stroke-linecap="round"/>
<path d="M41.4567 62.6968V64.8645" stroke="#D2D8DF" stroke-width="2.921" stroke-linecap="round"/>
<path d="M34.9535 69.2H37.1213" stroke="#D2D8DF" stroke-width="2.921" stroke-linecap="round"/>
<path d="M41.4567 74.9805V72.8127" stroke="#D2D8DF" stroke-width="2.921" stroke-linecap="round"/>
<path d="M47.2374 69.2H45.0696" stroke="#D2D8DF" stroke-width="2.921" stroke-linecap="round"/>
<path d="M196.994 141.486C198.721 141.486 200.122 142.887 200.122 144.614C200.122 146.342 198.721 147.742 196.994 147.742C195.268 147.742 193.867 146.342 193.867 144.614" stroke="#D2D8DF" stroke-width="2.921" stroke-linecap="round"/>
<path fill-rule="evenodd" clip-rule="evenodd" d="M211.306 113.106C213.163 112.527 216.01 110.256 216.668 107.813C217.266 109.973 219.771 112.527 222.031 112.72C219.487 113.621 217.054 116.297 216.668 118.399C216.406 116.256 213.042 113.419 211.306 113.106Z" fill="#EBECEE"/>
<path fill-rule="evenodd" clip-rule="evenodd" d="M20.6981 140.522C21.6269 140.233 23.0494 139.098 23.3789 137.876C23.6776 138.955 24.9296 140.233 26.0596 140.33C24.7879 140.78 23.5721 142.118 23.3789 143.169C23.2476 142.098 21.5655 140.678 20.6981 140.522Z" fill="#EBECEE"/>
<path fill-rule="evenodd" clip-rule="evenodd" d="M37.9334 40.0056C37.9334 41.3457 36.8476 42.4312 35.5085 42.4312C34.1687 42.4312 33.0836 41.3457 33.0836 40.0056C33.0836 38.6661 34.1687 37.5801 35.5085 37.5801C36.8476 37.5801 37.9334 38.6661 37.9334 40.0056Z" fill="#D1D8DF"/>
<path fill-rule="evenodd" clip-rule="evenodd" d="M199.86 46.5186C199.86 48.7577 198.044 50.5727 195.807 50.5727C193.568 50.5727 191.753 48.7577 191.753 46.5186C191.753 44.2796 193.568 42.4646 195.807 42.4646C198.044 42.4646 199.86 44.2796 199.86 46.5186Z" fill="#EBECEE"/>
<path fill-rule="evenodd" clip-rule="evenodd" d="M256 35.5347C256 37.3111 254.561 38.7506 252.786 38.7506C251.01 38.7506 249.571 37.3111 249.571 35.5347C249.571 33.7584 251.01 32.3188 252.786 32.3188C254.561 32.3188 256 33.7584 256 35.5347Z" fill="#EBECEE"/>
<path fill-rule="evenodd" clip-rule="evenodd" d="M83.2531 185.728C83.2531 186.848 82.3459 187.756 81.2263 187.756C80.1074 187.756 79.2001 186.848 79.2001 185.728C79.2001 184.608 80.1074 183.701 81.2263 183.701C82.3459 183.701 83.2531 184.608 83.2531 185.728Z" stroke="#D2D8DF" stroke-width="2.921" stroke-linecap="round"/>
<path fill-rule="evenodd" clip-rule="evenodd" d="M82.0474 24.4229C82.0474 25.763 80.9616 26.8484 79.6225 26.8484C78.2833 26.8484 77.1975 25.763 77.1975 24.4229C77.1975 23.0834 78.2833 21.9973 79.6225 21.9973C80.9616 21.9973 82.0474 23.0834 82.0474 24.4229Z" stroke="#D2D8DF" stroke-width="2.921" stroke-linecap="round"/>
<path fill-rule="evenodd" clip-rule="evenodd" d="M143.902 208.178C142.353 208.768 140.618 207.989 140.029 206.44C139.439 204.89 140.217 203.154 141.767 202.565C143.316 201.976 145.05 202.754 145.64 204.304C146.23 205.854 145.452 207.588 143.902 208.178Z" stroke="#D2D8DF" stroke-width="2.921" stroke-linecap="round"/>
<path fill-rule="evenodd" clip-rule="evenodd" d="M142.978 150.851H83.7236C79.553 150.851 76.1391 147.427 76.1391 143.242V58.7422C76.1391 54.5575 79.553 51.1353 83.7236 51.1353H142.978C147.151 51.1353 150.565 54.5575 150.565 58.7422V143.242C150.565 147.427 147.151 150.851 142.978 150.851Z" fill="#E0E2EE"/>
<path fill-rule="evenodd" clip-rule="evenodd" d="M137.92 154.464H78.6656C74.4949 154.464 71.081 151.04 71.081 146.855V62.355C71.081 58.1703 74.4949 54.748 78.6656 54.748H137.92C142.093 54.748 145.507 58.1703 145.507 62.355V146.855C145.507 151.04 142.093 154.464 137.92 154.464Z" fill="#E8EBF2"/>
<path fill-rule="evenodd" clip-rule="evenodd" d="M133 157.316H73.6232C69.4439 157.316 66.023 153.906 66.023 149.739V65.5886C66.023 61.4213 69.4439 58.0132 73.6232 58.0132H133C137.181 58.0132 140.602 61.4213 140.602 65.5886V149.739C140.602 153.906 137.181 157.316 133 157.316Z" fill="#D8DBEA"/>
<path fill-rule="evenodd" clip-rule="evenodd" d="M133 157.316H73.6232C69.4439 157.316 66.023 153.906 66.023 149.739V65.5886C66.023 61.4213 69.4439 58.0132 73.6232 58.0132H133C137.181 58.0132 140.602 61.4213 140.602 65.5886V149.739C140.602 153.906 137.181 157.316 133 157.316Z" fill="#F1F2F7"/>
<path fill-rule="evenodd" clip-rule="evenodd" d="M124.442 83.6511H80.5845C79.332 83.6511 78.3068 82.6758 78.3068 81.4842C78.3068 80.291 79.332 79.3157 80.5845 79.3157H124.442C125.694 79.3157 126.72 80.291 126.72 81.4842C126.72 82.6758 125.694 83.6511 124.442 83.6511Z" fill="#E0E2EE"/>
<path fill-rule="evenodd" clip-rule="evenodd" d="M124.442 96.6577H80.5845C79.332 96.6577 78.3068 95.6824 78.3068 94.4908C78.3068 93.2976 79.332 92.3223 80.5845 92.3223H124.442C125.694 92.3223 126.72 93.2976 126.72 94.4908C126.72 95.6824 125.694 96.6577 124.442 96.6577Z" fill="#E0E2EE"/>
<path fill-rule="evenodd" clip-rule="evenodd" d="M124.442 109.664H80.5845C79.332 109.664 78.3068 108.689 78.3068 107.497C78.3068 106.306 79.332 105.329 80.5845 105.329H124.442C125.694 105.329 126.72 106.306 126.72 107.497C126.72 108.689 125.694 109.664 124.442 109.664Z" fill="#E0E2EE"/>
<path fill-rule="evenodd" clip-rule="evenodd" d="M124.442 122.67H80.5845C79.332 122.67 78.3068 121.695 78.3068 120.504C78.3068 119.31 79.332 118.335 80.5845 118.335H124.442C125.694 118.335 126.72 119.31 126.72 120.504C126.72 121.695 125.694 122.67 124.442 122.67Z" fill="#E0E2EE"/>
<path fill-rule="evenodd" clip-rule="evenodd" d="M103.477 135.677H80.5943C79.3364 135.677 78.3068 134.701 78.3068 133.51C78.3068 132.317 79.3364 131.341 80.5943 131.341H103.477C104.735 131.341 105.765 132.317 105.765 133.51C105.765 134.701 104.735 135.677 103.477 135.677Z" fill="#E0E2EE"/>
<path fill-rule="evenodd" clip-rule="evenodd" d="M149.665 118.867C140.895 127.636 127.319 128.625 117.462 121.855C116.203 120.974 115.004 119.985 113.886 118.867C113.31 118.294 112.767 117.702 112.256 117.078C111.234 115.834 110.338 114.506 109.605 113.135C108.312 110.818 107.433 108.36 106.953 105.819C105.404 97.8505 107.72 89.2735 113.886 83.1105C120.066 76.9292 128.645 74.6291 136.614 76.1625C139.154 76.6571 141.614 77.5359 143.931 78.8138C145.305 79.5639 146.614 80.4593 147.861 81.4815C148.483 81.9908 149.075 82.5351 149.648 83.1105C150.768 84.2284 151.772 85.4253 152.637 86.6866C159.409 96.5396 158.418 110.116 149.665 118.867Z" fill="white" fill-opacity="0.1"/>
<path fill-rule="evenodd" clip-rule="evenodd" d="M147.211 117.14C138.087 126.266 123.302 126.264 114.176 117.14C105.063 108.027 105.063 93.2395 114.188 84.1158C123.302 75.0023 138.087 75.0023 147.201 84.1158C156.325 93.2395 156.325 108.027 147.211 117.14ZM151.893 79.4281C140.182 67.717 121.205 67.717 109.494 79.4281C97.7845 91.1375 97.7743 110.127 109.484 121.838C120.142 132.493 136.848 133.454 148.598 124.705C149.746 123.85 150.851 122.89 151.905 121.838C152.958 120.784 153.917 119.678 154.771 118.531C163.52 106.779 162.55 90.0849 151.893 79.4281Z" fill="#E0E2EE"/>
<path fill-rule="evenodd" clip-rule="evenodd" d="M197.982 165.983L197.49 166.475C194.237 169.729 188.911 169.729 185.656 166.475L155.623 136.441L167.948 124.116L197.982 154.15C201.236 157.404 201.236 162.729 197.982 165.983Z" fill="url(#paint0_linear_6732_3051)"/>
<path fill-rule="evenodd" clip-rule="evenodd" d="M155.419 117.612L164.294 126.487L157.993 132.786L149.119 123.911C150.291 123.038 151.417 122.059 152.494 120.985C153.568 119.911 154.547 118.783 155.419 117.612Z" fill="#E0E2EE"/>
<path fill-rule="evenodd" clip-rule="evenodd" d="M197.532 153.78L185.285 166.025L183.081 163.819L195.326 151.573L197.532 153.78Z" fill="#7446ED"/>
<path fill-rule="evenodd" clip-rule="evenodd" d="M168.629 124.54L156.047 137.122L154.178 135.253L166.76 122.67L168.629 124.54Z" fill="url(#paint1_linear_6732_3051)"/>
<path fill-rule="evenodd" clip-rule="evenodd" d="M141.171 80.9768L110.314 111.832C109.152 109.749 108.362 107.539 107.933 105.255L134.594 78.5933C136.877 79.0396 139.088 79.828 141.171 80.9768Z" fill="white" fill-opacity="0.5"/>
<path fill-rule="evenodd" clip-rule="evenodd" d="M151.287 88.3106L117.928 119.78C116.733 118.994 115.596 118.108 114.536 117.108C113.99 116.593 113.474 116.065 112.991 115.507L146.756 83.6511C147.347 84.1085 147.909 84.5955 148.453 85.1105C149.514 86.1108 150.468 87.1819 151.287 88.3106Z" fill="white" fill-opacity="0.5"/>
<defs>
<linearGradient id="paint0_linear_6732_3051" x1="178.023" y1="101.716" x2="133.223" y2="146.516" gradientUnits="userSpaceOnUse">
<stop stop-color="#7446ED"/>
<stop offset="1" stop-color="#A181F8"/>
</linearGradient>
<linearGradient id="paint1_linear_6732_3051" x1="161.403" y1="115.445" x2="146.952" y2="129.896" gradientUnits="userSpaceOnUse">
<stop stop-color="#7446ED"/>
<stop offset="1" stop-color="#C5AFFF"/>
</linearGradient>
</defs>
</svg>
