<svg width="300" height="198" viewBox="0 0 300 198" fill="none" xmlns="http://www.w3.org/2000/svg">
<path d="M298.752 194.645C305.987 180.326 285.308 108.731 141.923 108.731C38.4274 108.731 -9.07413 167.333 1.42751 197.032" fill="url(#paint0_radial_6732_2151)"/>
<mask id="mask0_6732_2151" style="mask-type:luminance" maskUnits="userSpaceOnUse" x="0" y="108" width="300" height="90">
<path d="M298.752 194.645C305.987 180.326 285.308 108.731 141.923 108.731C38.4274 108.731 -9.07413 167.333 1.42751 197.032" fill="white"/>
</mask>
<g mask="url(#mask0_6732_2151)">
<ellipse opacity="0.671968" cx="119.807" cy="171.956" rx="7.88551" ry="4.38001" fill="url(#paint1_linear_6732_2151)"/>
<ellipse opacity="0.256348" cx="200.293" cy="142.194" rx="12.4416" ry="6.83282" fill="url(#paint2_linear_6732_2151)"/>
<ellipse opacity="0.729957" cx="58.7033" cy="123.973" rx="12.4416" ry="6.83282" fill="url(#paint3_linear_6732_2151)"/>
</g>
<path opacity="0.5" d="M116.885 124.608C116.885 124.608 147.396 138.955 159.5 144.461C169.088 148.823 218.456 162.774 224.337 158.808C230.219 154.843 243.204 143.958 238.917 136.501C234.63 129.044 212.085 115.655 201.302 113.699C190.519 111.742 159.688 120.636 159.688 120.636L133.39 125.152L116.885 124.608Z" fill="url(#paint4_linear_6732_2151)"/>
<path d="M139.5 60.4614L105.5 85.4614L114.566 64.1922L148.615 42.5755L139.5 60.4614Z" fill="#E2E7EC"/>
<path d="M114 64.6312L148.615 42.9614V102.061L116.885 124.308L114 64.6312Z" fill="#D8DFE6"/>
<path d="M148.615 42.9614L201.692 55.3789V114.5L148.615 102.082V42.9614Z" fill="#E9EFF1"/>
<path d="M114 64.6282L168.231 77.3018V136.423L116.885 124.632L114 64.6282Z" fill="#E8EAEB"/>
<path d="M167.076 77.3236L201.692 55.6538V114.753L167.076 136.423V77.3236Z" fill="#D8DFE6"/>
<mask id="mask1_6732_2151" style="mask-type:luminance" maskUnits="userSpaceOnUse" x="167" y="55" width="35" height="82">
<path d="M167.076 77.3236L201.692 55.6538V114.753L167.076 136.423V77.3236Z" fill="white"/>
</mask>
<g mask="url(#mask1_6732_2151)">
<rect x="179.934" y="50.729" width="10.8791" height="90.6191" fill="#C7D0D9"/>
</g>
<path d="M182.642 94.8846L216.692 73.2679L201.126 55.6538L167.076 77.2705L182.642 94.8846Z" fill="#E2E7EC"/>
<path fill-rule="evenodd" clip-rule="evenodd" d="M193.616 0.021443C192.4 0.393102 167.229 15.4534 167.229 15.4534L174.575 16.0011L179.794 21.7699C179.794 21.7699 194.832 -0.350216 193.616 0.021443Z" fill="#E8EAEB"/>
<mask id="mask2_6732_2151" style="mask-type:luminance" maskUnits="userSpaceOnUse" x="167" y="0" width="27" height="22">
<path fill-rule="evenodd" clip-rule="evenodd" d="M193.616 0.021443C192.4 0.393102 167.229 15.4534 167.229 15.4534L174.575 16.0011L179.794 21.7699C179.794 21.7699 194.832 -0.350216 193.616 0.021443Z" fill="white"/>
</mask>
<g mask="url(#mask2_6732_2151)">
<path fill-rule="evenodd" clip-rule="evenodd" d="M174.575 16.001L193.616 0.0213211L179.794 21.7698L174.575 16.001Z" fill="#D8DFE6"/>
</g>
<path fill-rule="evenodd" clip-rule="evenodd" d="M189.836 17.4728L181.009 16.5502L193.626 0.176923L189.836 17.4728Z" fill="#E8EAEB"/>
<path fill-rule="evenodd" clip-rule="evenodd" d="M173.584 28.3812C174.135 27.2141 174.691 26.0061 175.25 24.7571L176.162 25.1656C175.601 26.4208 175.042 27.635 174.488 28.8084L173.584 28.3812ZM169.992 35.5012C170.602 34.3768 171.216 33.199 171.835 31.968L172.729 32.4175C172.105 33.6574 171.486 34.8442 170.871 35.9777L169.992 35.5012ZM168.032 38.9651C167.321 40.1629 166.618 41.2855 165.922 42.3328L166.755 42.8864C167.46 41.8245 168.173 40.6875 168.892 39.4753L168.032 38.9651ZM161.043 48.5628C161.886 47.6879 162.742 46.6895 163.611 45.5676L164.401 46.1797C163.512 47.3292 162.632 48.3549 161.763 49.2568L161.043 48.5628ZM158.106 51.1467C156.937 51.9844 155.798 52.5638 154.691 52.8876L154.972 53.8474C156.193 53.4901 157.432 52.8598 158.688 51.9595L158.106 51.1467ZM147.639 51.2522C148.739 52.1389 149.857 52.7197 150.995 52.9998L150.756 53.9708C149.469 53.6541 148.221 53.0055 147.012 52.0306L147.639 51.2522ZM144.944 48.4119C144.882 48.3307 144.82 48.2486 144.758 48.1654C143.954 47.0819 143.369 46.0536 142.996 45.0823L142.062 45.4407C142.47 46.5018 143.099 47.6086 143.956 48.7618C144.02 48.8486 144.085 48.9343 144.149 49.0189L144.944 48.4119ZM144.705 38.3525C143.624 39.2447 142.93 40.2688 142.646 41.4112L141.676 41.1705C142.014 39.8073 142.831 38.6033 144.068 37.5815L144.705 38.3525ZM148.045 36.4734C149.17 36.034 150.436 35.6757 151.808 35.4052L151.614 34.4241C150.186 34.7056 148.864 35.08 147.682 35.5419L148.045 36.4734ZM159.637 34.8331C158.306 34.7858 156.98 34.8077 155.689 34.8986L155.619 33.9011C156.946 33.8077 158.307 33.7852 159.672 33.8337L159.637 34.8331ZM163.617 35.1836C164.957 35.3744 166.254 35.6359 167.479 35.9635L167.737 34.9975C166.473 34.6593 165.137 34.39 163.758 34.1936L163.617 35.1836ZM174.513 39.2591C173.599 38.5149 172.483 37.8469 171.195 37.2664L171.606 36.3547C172.969 36.9692 174.159 37.6814 175.144 38.4834L174.513 39.2591ZM176.896 42.2627C177.138 42.8233 177.292 43.4072 177.357 44.0146C177.426 44.6571 177.45 45.3029 177.429 45.9521L178.428 45.9847C178.451 45.2891 178.425 44.5968 178.351 43.908C178.276 43.2005 178.095 42.5193 177.815 41.8674L176.896 42.2627ZM175.295 53.4029C175.938 52.1889 176.437 50.9877 176.79 49.7992L177.748 50.0841C177.376 51.3378 176.852 52.6002 176.178 53.8713L175.295 53.4029ZM173.177 56.7463C172.437 57.7538 171.601 58.7694 170.668 59.793L171.407 60.4666C172.363 59.4177 173.222 58.3749 173.983 57.3382L173.177 56.7463ZM164.926 65.2037C165.987 64.3249 166.981 63.4514 167.907 62.5833L168.591 63.3129C167.65 64.1954 166.64 65.0824 165.563 65.9739L164.926 65.2037ZM161.774 67.6799C160.746 68.449 159.668 69.222 158.539 69.9988L159.106 70.8226C160.245 70.0384 161.335 69.2578 162.373 68.4806L161.774 67.6799ZM153.103 73.5283C153.814 73.0911 154.509 72.6549 155.188 72.22L155.727 73.0622C155.043 73.5003 154.343 73.9396 153.628 74.38L153.103 73.5283Z" fill="#C7D0D9"/>
<defs>
<radialGradient id="paint0_radial_6732_2151" cx="0" cy="0" r="1" gradientUnits="userSpaceOnUse" gradientTransform="translate(130.111 139.354) rotate(-90) scale(51.3403 536.198)">
<stop stop-color="#EBEDF0" stop-opacity="0.24"/>
<stop offset="0.536775" stop-color="#EBEDF0" stop-opacity="0.845525"/>
<stop offset="1" stop-color="#E0E4E7" stop-opacity="0.01"/>
</radialGradient>
<linearGradient id="paint1_linear_6732_2151" x1="113.46" y1="170.795" x2="115.863" y2="175.933" gradientUnits="userSpaceOnUse">
<stop stop-color="#E1E7EA"/>
<stop offset="1" stop-color="#D0D6DC"/>
</linearGradient>
<linearGradient id="paint2_linear_6732_2151" x1="189.846" y1="141.556" x2="194.242" y2="150.725" gradientUnits="userSpaceOnUse">
<stop stop-color="#E1E7EA"/>
<stop offset="1" stop-color="#D0D6DC"/>
</linearGradient>
<linearGradient id="paint3_linear_6732_2151" x1="50.7703" y1="124.083" x2="53.2577" y2="133.993" gradientUnits="userSpaceOnUse">
<stop stop-color="#FBFBFB"/>
<stop offset="1" stop-color="#D9DFE3"/>
</linearGradient>
<linearGradient id="paint4_linear_6732_2151" x1="112.401" y1="129.583" x2="121.277" y2="169.385" gradientUnits="userSpaceOnUse">
<stop stop-color="#C4CDD1"/>
<stop offset="1" stop-color="#C6CFD3" stop-opacity="0.01"/>
</linearGradient>
</defs>
</svg>
